<svg width="13" height="13" viewBox="0 0 13 13" fill="none" xmlns="http://www.w3.org/2000/svg">
<path d="M7.21891 1.70837C7.21891 1.31142 6.89712 0.989624 6.50016 0.989624C6.10321 0.989624 5.78141 1.31142 5.78141 1.70837V5.78129H1.7085C1.31154 5.78129 0.989746 6.10309 0.989746 6.50004C0.989746 6.897 1.31154 7.21879 1.7085 7.21879H5.78141V11.2917C5.78141 11.6887 6.10321 12.0105 6.50016 12.0105C6.89712 12.0105 7.21891 11.6887 7.21891 11.2917V7.21879H11.2918C11.6888 7.21879 12.0106 6.897 12.0106 6.50004C12.0106 6.10309 11.6888 5.78129 11.2918 5.78129H7.21891V1.70837Z" fill="#704CFF"/>
</svg>
