<svg width="58" height="17" viewBox="0 0 58 17" fill="none" xmlns="http://www.w3.org/2000/svg">
<path d="M57.9997 11.3483V8.66894L55.9958 5.83533L52.7063 4.75586L49.4547 5.83533L47.4319 8.66894V12.1772L49.4358 15.0108L52.7063 16.0903L55.9958 15.0108L57.4893 13.6037L55.8256 12.3893L54.7291 13.276L52.7063 13.9506L50.6646 13.276L49.4169 11.5218V11.3483H57.9997ZM50.6835 7.57019L52.7252 6.89552L54.7481 7.57019L56.0147 9.34361V9.53637H49.4358V9.34361L50.6835 7.57019Z" fill="#FBFBFB"/>
<path d="M46.1478 13.5844H40.363L46.1668 5.5655V5.25708H36.5442V7.18471H42.537L36.5631 15.2807V15.5506H46.1478V13.5844Z" fill="#FBFBFB"/>
<path d="M31.9297 15.5511V5.25757H34.0092V15.5511H31.9297Z" fill="#FBFBFB"/>
<path d="M32.9548 0.000103541L31.4309 1.55396L32.9548 3.10781L34.4787 1.55396L32.9548 0.000103541Z" fill="#FBFBFB"/>
<path d="M27.6766 5.27755L27.4686 6.33774L27.1283 5.85583L23.8389 4.77637L20.5873 5.85583L18.5645 8.68945V12.1977L20.5684 15.0313L23.8389 16.1108L27.1283 15.0313L27.4497 14.588L27.601 15.5903H29.2646V5.29683L27.6766 5.27755ZM27.1283 11.5231L25.8617 13.2965L23.8389 13.9711L21.7972 13.2965L20.5495 11.5423V9.36412L21.7972 7.60998L23.8389 6.93531L25.8617 7.60998L27.1283 9.3834V11.5231Z" fill="#FBFBFB"/>
<path d="M14.3091 15.5707V1.57617H16.3886V15.5707H14.3091Z" fill="#FBFBFB"/>
<path d="M10.2275 12.7947L9.14994 13.585H2.17406V9.11294H9.05542L10.2275 9.98038L10.6812 11.3875L10.2275 12.7947ZM11.7966 8.80453L10.6812 7.97564L11.0782 7.68649L11.8155 5.35407L11.0782 3.02165L9.13104 1.57593H0V15.5512H9.64147L11.7966 13.9513L12.6095 11.3683L11.7966 8.80453ZM2.17406 3.52283H8.52608L9.47133 4.21677L9.83052 5.35407L9.47133 6.49138L8.52608 7.18532H2.17406V3.52283Z" fill="#FBFBFB"/>
</svg>
