<svg width="18" height="18" viewBox="0 0 18 18" fill="none" xmlns="http://www.w3.org/2000/svg">
<path d="M16.793 3.24004C17.3544 2.67866 17.3544 1.76848 16.793 1.20711C16.2316 0.645727 15.3214 0.645727 14.76 1.20711L9.00008 6.96707L3.24012 1.20711C2.67874 0.645728 1.76856 0.645728 1.20718 1.20711C0.645806 1.76849 0.645806 2.67866 1.20718 3.24004L6.96715 9L1.20717 14.76C0.645788 15.3214 0.645788 16.2315 1.20717 16.7929C1.76855 17.3543 2.67872 17.3543 3.2401 16.7929L9.00008 11.0329L14.7601 16.7929C15.3214 17.3543 16.2316 17.3543 16.793 16.7929C17.3544 16.2315 17.3544 15.3214 16.793 14.76L11.033 9L16.793 3.24004Z" fill="white"/>
</svg>
