<svg width="543" height="108" viewBox="0 0 543 108" fill="none" xmlns="http://www.w3.org/2000/svg">
<path d="M0 7.10526H73.4328L74.845 36.6632H72.3031C68.8197 26.4316 64.7715 19.4684 60.1584 15.7737C55.6395 12.0789 48.8611 10.2316 39.8232 10.2316H35.8691V56.4158H42.2239C46.7428 56.4158 50.5086 54.7579 53.5212 51.4421C56.5338 48.1263 58.605 43.5789 59.7348 37.8H61.853V79.8632H59.4523C57.946 72.7579 55.8278 67.6895 53.0976 64.6579C50.4615 61.6263 46.8369 60.1105 42.2239 60.1105H35.8691V103.453H53.38V106.579H0V103.453H8.3318V10.2316H0V7.10526Z" fill="#FBFBFB"/>
<path d="M108.188 73.1842H112.283V62.2421C112.283 53.2421 111.765 47.2263 110.73 44.1947C109.788 41.0684 107.905 39.5053 105.081 39.5053C103.386 39.5053 101.833 39.979 100.421 40.9263C99.1027 41.7789 98.4436 43.0105 98.4436 44.6211C98.4436 46.1368 98.7261 47.7 99.2909 49.3105H102.821C103.575 51.3 103.951 53.7158 103.951 56.5579C103.951 59.3053 102.774 61.7211 100.421 63.8053C98.0671 65.7947 95.1015 66.7895 91.524 66.7895C83.4276 66.7895 79.3794 62.8579 79.3794 54.9947C79.3794 43.3421 89.2175 37.5158 108.894 37.5158C120.097 37.5158 127.817 39.4579 132.053 43.3421C136.384 47.1316 138.549 54.1421 138.549 64.3737V93.2211C138.549 98.1474 139.914 100.611 142.645 100.611C145.845 100.611 147.728 95.7316 148.293 85.9737L150.411 86.1158C150.035 94.4526 148.481 100.184 145.751 103.311C143.021 106.437 138.549 108 132.336 108C121.038 108 114.542 104.495 112.848 97.4842C111.624 101.084 109.788 103.737 107.34 105.442C104.893 107.147 101.315 108 96.6078 108C82.6744 108 75.7077 102.268 75.7077 90.8053C75.7077 84.0789 78.3438 79.4842 83.6159 77.021C88.9821 74.4632 97.1727 73.1842 108.188 73.1842ZM102.539 90.6632C102.539 95.5895 102.774 98.7632 103.245 100.184C103.81 101.605 104.798 102.316 106.211 102.316C107.717 102.316 109.082 101.132 110.306 98.7632C111.624 96.3 112.283 92.9368 112.283 88.6737V75.4579H111.294C105.457 75.4579 102.539 79.7684 102.539 88.3895V90.6632Z" fill="#FBFBFB"/>
<path d="M197.977 106.579V104.021H204.473L188.516 71.0526L185.833 71.7632V104.021H192.329V106.579H151.799V104.021H159.566V2.55789H151.234V0H185.833V68.9211L188.092 68.0684L219.866 41.4947H206.592V38.9368H234.411V41.4947H224.526L207.721 55.8474L232.152 104.021H237.236V106.579H197.977Z" fill="#FBFBFB"/>
<path d="M272.925 108C260.78 108 251.648 104.874 245.529 98.621C239.504 92.2737 236.491 83.5105 236.491 72.3316C236.491 61.0579 239.88 52.4368 246.659 46.4684C253.531 40.5 262.239 37.5158 272.784 37.5158C294.154 37.5158 304.416 48.3158 303.569 69.9158H263.746V75.4579C263.746 84.7421 264.923 91.7526 267.276 96.4895C269.63 101.226 273.725 103.595 279.562 103.595C290.483 103.595 297.638 97.7211 301.027 85.9737L303.569 86.4C301.78 93.221 298.532 98.5263 293.825 102.316C289.212 106.105 282.245 108 272.925 108ZM263.887 67.0737H278.432V60.1105C278.432 52.4368 277.962 47.2263 277.02 44.479C276.173 41.6368 274.384 40.2158 271.654 40.2158C269.018 40.2158 267.041 41.7316 265.723 44.7632C264.499 47.7 263.887 52.8158 263.887 60.1105V67.0737Z" fill="#FBFBFB"/>
<path d="M308.035 0H342.633V104.021H350.541V106.579H308.6V104.021H316.367V2.55789H308.035V0Z" fill="#FBFBFB"/>
<path d="M390.422 108C378.277 108 369.145 104.874 363.026 98.621C357 92.2737 353.988 83.5105 353.988 72.3316C353.988 61.0579 357.377 52.4368 364.155 46.4684C371.028 40.5 379.736 37.5158 390.281 37.5158C411.651 37.5158 421.913 48.3158 421.066 69.9158H381.243V75.4579C381.243 84.7421 382.419 91.7526 384.773 96.4895C387.127 101.226 391.222 103.595 397.059 103.595C407.98 103.595 415.135 97.7211 418.524 85.9737L421.066 86.4C419.277 93.221 416.029 98.5263 411.322 102.316C406.709 106.105 399.742 108 390.422 108ZM381.384 67.0737H395.929V60.1105C395.929 52.4368 395.458 47.2263 394.517 44.479C393.67 41.6368 391.881 40.2158 389.151 40.2158C386.515 40.2158 384.538 41.7316 383.22 44.7632C381.996 47.7 381.384 52.8158 381.384 60.1105V67.0737Z" fill="#FBFBFB"/>
<path d="M427.966 108V82.5632H429.66C432.108 90.8053 435.403 96.5842 439.545 99.9C443.688 103.216 448.866 104.874 455.079 104.874C464.682 104.874 469.483 101.795 469.483 95.6368C469.483 92.9842 468.307 90.9947 465.953 89.6684C462.281 87.5842 457.574 85.9737 451.831 84.8368C445.429 83.1316 440.063 80.8579 435.733 78.0158C430.555 74.6053 427.966 69.2053 427.966 61.8158C427.966 54.4263 430.225 48.5526 434.744 44.1947C439.263 39.7421 445.288 37.5158 452.82 37.5158C457.433 37.5158 462.187 38.6053 467.083 40.7842C468.871 41.5421 470.237 41.9211 471.178 41.9211C472.119 41.9211 472.92 41.5895 473.579 40.9263C474.238 40.2632 475.038 39.0316 475.979 37.2316H477.533V58.9737H475.838C471.037 46.6579 463.599 40.5 453.526 40.5C449.101 40.5 445.806 41.3053 443.641 42.9158C441.475 44.4316 440.393 46.3737 440.393 48.7421C440.393 50.1632 440.722 51.3 441.381 52.1526C442.04 52.9105 442.558 53.4789 442.935 53.8579C443.311 54.2368 443.923 54.6632 444.77 55.1368C445.618 55.5158 446.324 55.8474 446.889 56.1316C447.454 56.321 448.301 56.6053 449.431 56.9842C450.654 57.3632 451.549 57.6 452.114 57.6947C458.516 59.3053 463.129 60.7263 465.953 61.9579C468.777 63.0947 471.46 64.5158 474.002 66.221C479.18 69.821 481.769 75.6474 481.769 83.7C481.769 91.6579 479.416 97.721 474.708 101.889C470.001 105.963 463.552 108 455.362 108C449.525 108 443.876 106.626 438.416 103.879C437.286 103.121 436.392 102.742 435.733 102.742C433.661 102.742 431.637 104.495 429.66 108H427.966Z" fill="#FBFBFB"/>
<path d="M489.196 108V82.5632H490.891C493.339 90.8053 496.634 96.5842 500.776 99.9C504.919 103.216 510.096 104.874 516.31 104.874C525.913 104.874 530.714 101.795 530.714 95.6368C530.714 92.9842 529.537 90.9947 527.184 89.6684C523.512 87.5842 518.805 85.9737 513.062 84.8368C506.66 83.1316 501.294 80.8579 496.963 78.0158C491.785 74.6053 489.196 69.2053 489.196 61.8158C489.196 54.4263 491.456 48.5526 495.975 44.1947C500.494 39.7421 506.519 37.5158 514.051 37.5158C518.664 37.5158 523.418 38.6053 528.313 40.7842C530.102 41.5421 531.467 41.9211 532.409 41.9211C533.35 41.9211 534.15 41.5895 534.809 40.9263C535.468 40.2632 536.269 39.0316 537.21 37.2316H538.763V58.9737H537.069C532.268 46.6579 524.83 40.5 514.757 40.5C510.332 40.5 507.037 41.3053 504.871 42.9158C502.706 44.4316 501.623 46.3737 501.623 48.7421C501.623 50.1632 501.953 51.3 502.612 52.1526C503.271 52.9105 503.789 53.4789 504.165 53.8579C504.542 54.2368 505.154 54.6632 506.001 55.1368C506.848 55.5158 507.555 55.8474 508.119 56.1316C508.684 56.321 509.532 56.6053 510.661 56.9842C511.885 57.3632 512.78 57.6 513.344 57.6947C519.746 59.3053 524.359 60.7263 527.184 61.9579C530.008 63.0947 532.691 64.5158 535.233 66.221C540.411 69.821 543 75.6474 543 83.7C543 91.6579 540.646 97.721 535.939 101.889C531.232 105.963 524.783 108 516.592 108C510.755 108 505.107 106.626 499.646 103.879C498.517 103.121 497.622 102.742 496.963 102.742C494.892 102.742 492.868 104.495 490.891 108H489.196Z" fill="#FBFBFB"/>
</svg>
