<svg width="132" height="20" viewBox="0 0 132 20" fill="none" xmlns="http://www.w3.org/2000/svg">
<path d="M13.2797 0.40377V4.57604H4.72113V8.2638H12.1436V12.1938H4.72113V19.5693H0V0.40377H13.2797Z" fill="#FBFBFB"/>
<path d="M23.7228 0.376851L30.4384 19.5693H25.591L24.4297 16.07H18.219L17.0324 19.5693H12.2356L18.9764 0.376851H23.7228ZM23.3693 12.463L21.3496 5.76043L19.2794 12.463H23.3693Z" fill="#FBFBFB"/>
<path d="M48.3156 0.40377L41.6505 7.91386L49.1487 19.5693H43.3168L38.4694 11.5209L36.5507 13.6474V19.5693H31.9053V0.40377H36.5002V7.72544L42.5089 0.40377H48.3156Z" fill="#FBFBFB"/>
<path d="M64.9585 0.40377V4.44145H55.2385V7.75236H64.1253V11.6285H55.2385V15.3701H65.1857V19.5693H50.5679V0.40377H64.9585Z" fill="#FBFBFB"/>
<path d="M80.954 15.2625V19.5693H67.851V0.40377H72.5721V15.2625H80.954Z" fill="#FBFBFB"/>
<path d="M97.6756 0.40377V4.44145H87.9556V7.75236H96.8425V11.6285H87.9556V15.3701H97.9028V19.5693H83.285V0.40377H97.6756Z" fill="#FBFBFB"/>
<path d="M114.429 6.1642H109.96C109.859 4.60296 108.883 3.82234 107.031 3.82234C106.291 3.82234 105.71 3.97488 105.289 4.27995C104.868 4.56707 104.658 4.96187 104.658 5.46433C104.658 5.85913 104.751 6.1642 104.936 6.37954C105.138 6.59489 105.5 6.77434 106.021 6.9179C109.152 7.79722 111.264 8.50606 112.358 9.04442C114.227 9.97757 115.161 11.5298 115.161 13.7012C115.161 15.6214 114.462 17.1557 113.065 18.3042C111.685 19.4347 109.817 20 107.46 20C104.969 20 103.017 19.3988 101.603 18.1965C100.189 16.9942 99.4657 15.3073 99.432 13.1359H104.153C104.153 15.1638 105.357 16.1777 107.763 16.1777C109.548 16.1777 110.44 15.5316 110.44 14.2396C110.44 13.7192 110.263 13.3154 109.909 13.0283C109.573 12.7232 108.958 12.445 108.066 12.1938C106.366 11.6913 104.885 11.1889 103.623 10.6864C101.283 9.78914 100.114 8.20099 100.114 5.92194C100.114 4.10947 100.762 2.67385 102.058 1.61507C103.37 0.538359 105.138 0 107.359 0C109.598 0 111.323 0.529386 112.535 1.58816C113.764 2.64693 114.395 4.17228 114.429 6.1642Z" fill="#FBFBFB"/>
<path d="M131.268 6.1642H126.799C126.698 4.60296 125.722 3.82234 123.871 3.82234C123.13 3.82234 122.549 3.97488 122.129 4.27995C121.708 4.56707 121.497 4.96187 121.497 5.46433C121.497 5.85913 121.59 6.1642 121.775 6.37954C121.977 6.59489 122.339 6.77434 122.861 6.9179C125.991 7.79722 128.104 8.50606 129.198 9.04442C131.066 9.97757 132 11.5298 132 13.7012C132 15.6214 131.302 17.1557 129.905 18.3042C128.524 19.4347 126.656 20 124.3 20C121.809 20 119.856 19.3988 118.443 18.1965C117.029 16.9942 116.305 15.3073 116.271 13.1359H120.992C120.992 15.1638 122.196 16.1777 124.603 16.1777C126.387 16.1777 127.279 15.5316 127.279 14.2396C127.279 13.7192 127.102 13.3154 126.749 13.0283C126.412 12.7232 125.798 12.445 124.906 12.1938C123.206 11.6913 121.725 11.1889 120.462 10.6864C118.123 9.78914 116.953 8.20099 116.953 5.92194C116.953 4.10947 117.601 2.67385 118.897 1.61507C120.21 0.538359 121.977 0 124.199 0C126.437 0 128.163 0.529386 129.374 1.58816C130.603 2.64693 131.234 4.17228 131.268 6.1642Z" fill="#FBFBFB"/>
</svg>
