<svg width="140" height="25" viewBox="0 0 140 25" fill="none" xmlns="http://www.w3.org/2000/svg">
<path d="M40.2004 4.93759V8.12036H33.0058V10.9335H39.2454V13.9315H33.0058V19.5578H29.0371V4.93759H40.2004Z" fill="#FBFBFB"/>
<path d="M48.9792 4.91705L54.6245 19.5578H50.5497L49.5734 16.8884H44.3525L43.3551 19.5578H39.3227L44.9892 4.91705H48.9792ZM48.682 14.1368L46.9842 9.02385L45.2439 14.1368H48.682Z" fill="#FBFBFB"/>
<path d="M69.6526 4.93759L64.0497 10.6666L70.3529 19.5578H65.4504L61.3756 13.4181L59.7626 15.0403V19.5578H55.8576V4.93759H59.7202V10.5228L64.7713 4.93759H69.6526Z" fill="#FBFBFB"/>
<path d="M83.6431 4.93759V8.01769H75.4722V10.5434H82.9427V13.5003H75.4722V16.3545H83.8341V19.5578H71.5459V4.93759H83.6431Z" fill="#FBFBFB"/>
<path d="M97.0894 16.2724V19.5578H86.0746V4.93759H90.0433V16.2724H97.0894Z" fill="#FBFBFB"/>
<path d="M111.146 4.93759V8.01769H102.975V10.5434H110.446V13.5003H102.975V16.3545H111.337V19.5578H99.0489V4.93759H111.146Z" fill="#FBFBFB"/>
<path d="M125.229 9.33186H121.473C121.388 8.14089 120.567 7.54541 119.011 7.54541C118.388 7.54541 117.9 7.66177 117.546 7.89448C117.193 8.11351 117.016 8.41468 117.016 8.79798C117.016 9.09914 117.093 9.33186 117.249 9.49614C117.419 9.66041 117.723 9.7973 118.162 9.90682C120.793 10.5776 122.569 11.1183 123.489 11.529C125.059 12.2408 125.844 13.425 125.844 15.0814C125.844 16.5461 125.257 17.7166 124.083 18.5927C122.923 19.4551 121.352 19.8863 119.371 19.8863C117.277 19.8863 115.636 19.4277 114.448 18.5106C113.259 17.5934 112.651 16.3066 112.622 14.6502H116.591C116.591 16.1971 117.603 16.9705 119.626 16.9705C121.126 16.9705 121.876 16.4777 121.876 15.4921C121.876 15.0951 121.727 14.7871 121.43 14.568C121.147 14.3353 120.631 14.1231 119.881 13.9315C118.452 13.5482 117.207 13.1649 116.146 12.7816C114.179 12.0971 113.196 10.8856 113.196 9.14706C113.196 7.76444 113.74 6.66929 114.83 5.86162C115.933 5.04026 117.419 4.62958 119.287 4.62958C121.168 4.62958 122.619 5.03341 123.637 5.84108C124.67 6.64875 125.201 7.81235 125.229 9.33186Z" fill="#FBFBFB"/>
<path d="M139.385 9.33186H135.628C135.543 8.14089 134.723 7.54541 133.166 7.54541C132.544 7.54541 132.056 7.66177 131.702 7.89448C131.348 8.11351 131.171 8.41468 131.171 8.79798C131.171 9.09914 131.249 9.33186 131.405 9.49614C131.575 9.66041 131.879 9.7973 132.317 9.90682C134.949 10.5776 136.725 11.1183 137.644 11.529C139.215 12.2408 140 13.425 140 15.0814C140 16.5461 139.413 17.7166 138.239 18.5927C137.078 19.4551 135.508 19.8863 133.527 19.8863C131.433 19.8863 129.792 19.4277 128.603 18.5106C127.415 17.5934 126.806 16.3066 126.778 14.6502H130.747C130.747 16.1971 131.758 16.9705 133.782 16.9705C135.281 16.9705 136.031 16.4777 136.031 15.4921C136.031 15.0951 135.883 14.7871 135.586 14.568C135.303 14.3353 134.786 14.1231 134.036 13.9315C132.607 13.5482 131.362 13.1649 130.301 12.7816C128.334 12.0971 127.351 10.8856 127.351 9.14706C127.351 7.76444 127.896 6.66929 128.985 5.86162C130.089 5.04026 131.575 4.62958 133.442 4.62958C135.324 4.62958 136.774 5.03341 137.793 5.84108C138.826 6.64875 139.356 7.81235 139.385 9.33186Z" fill="#FBFBFB"/>
<path d="M20.0698 8.96234H0.00292969V15.3229H20.0698V8.96234Z" fill="#FBFBFB"/>
<path d="M20.0698 0H0.00292969V6.36055H20.0698V0Z" fill="#FBFBFB"/>
<path d="M3.83241 24.9999H3.61623C1.6182 24.9999 0 23.4128 0 21.4532V21.2412C0 19.2815 1.6182 17.6944 3.61623 17.6944H3.83241C5.83044 17.6944 7.44862 19.2815 7.44862 21.2412V21.4532C7.45171 23.4128 5.83044 24.9999 3.83241 24.9999Z" fill="#6F4EF5"/>
</svg>
