<svg width="20" height="20" viewBox="0 0 20 20" fill="none" xmlns="http://www.w3.org/2000/svg">
<circle cx="10" cy="10" r="9.5" fill="#1E232C" stroke="#FA6868"/>
<path d="M12.9646 7.8087C13.1781 7.59513 13.1781 7.24887 12.9646 7.0353C12.751 6.82173 12.4047 6.82173 12.1912 7.0353L9.99987 9.22659L7.80858 7.0353C7.59501 6.82173 7.24875 6.82173 7.03518 7.0353C6.82161 7.24887 6.82161 7.59513 7.03518 7.8087L9.22647 9.99999L7.03518 12.1913C6.82161 12.4049 6.82161 12.7511 7.03518 12.9647C7.24874 13.1783 7.59501 13.1783 7.80857 12.9647L9.99987 10.7734L12.1912 12.9647C12.4047 13.1783 12.751 13.1783 12.9646 12.9647C13.1781 12.7511 13.1781 12.4049 12.9646 12.1913L10.7733 9.99999L12.9646 7.8087Z" fill="#FA6868"/>
</svg>
